<mxfile host="65bd71144e">
    <diagram id="C5RBs43oDa-KdzZeNtuy" name="Page-1">
        <mxGraphModel dx="799" dy="799" grid="1" gridSize="10" guides="1" tooltips="1" connect="1" arrows="1" fold="1" page="1" pageScale="1" pageWidth="827" pageHeight="1169" math="0" shadow="0">
            <root>
                <mxCell id="WIyWlLk6GJQsqaUBKTNV-0"/>
                <mxCell id="WIyWlLk6GJQsqaUBKTNV-1" parent="WIyWlLk6GJQsqaUBKTNV-0"/>
                <mxCell id="VFtjQShfL0-Lv15Fn_P_-2" value="Test Creator" style="swimlane;fontStyle=1;align=center;verticalAlign=top;childLayout=stackLayout;horizontal=1;startSize=26;horizontalStack=0;resizeParent=1;resizeParentMax=0;resizeLast=0;collapsible=1;marginBottom=0;" parent="WIyWlLk6GJQsqaUBKTNV-1" vertex="1">
                    <mxGeometry x="370" y="490" width="440" height="180" as="geometry"/>
                </mxCell>
                <mxCell id="VFtjQShfL0-Lv15Fn_P_-3" value="- _allQuestions: ArrayList&lt;Question&gt;&#10;- _order: ArrrayList&lt;Question&gt;&#10;- _TestFileNAme: String&#10;= _keyFileName: String&#10;- _scheme: int" style="text;strokeColor=none;fillColor=none;align=left;verticalAlign=top;spacingLeft=4;spacingRight=4;overflow=hidden;rotatable=0;points=[[0,0.5],[1,0.5]];portConstraint=eastwest;" parent="VFtjQShfL0-Lv15Fn_P_-2" vertex="1">
                    <mxGeometry y="26" width="440" height="74" as="geometry"/>
                </mxCell>
                <mxCell id="VFtjQShfL0-Lv15Fn_P_-4" value="" style="line;strokeWidth=1;fillColor=none;align=left;verticalAlign=middle;spacingTop=-1;spacingLeft=3;spacingRight=3;rotatable=0;labelPosition=right;points=[];portConstraint=eastwest;" parent="VFtjQShfL0-Lv15Fn_P_-2" vertex="1">
                    <mxGeometry y="100" width="440" height="8" as="geometry"/>
                </mxCell>
                <mxCell id="VFtjQShfL0-Lv15Fn_P_-5" value="+ TestCreator(in q: ArrayList&lt;Question&gt;, in t: String, in k: String, in s: String): obj&#10;- createRandomizedOrder(): void&#10;+ makeTestFile(): void&#10;+ makeTestKeyFile(): void" style="text;strokeColor=none;fillColor=none;align=left;verticalAlign=top;spacingLeft=4;spacingRight=4;overflow=hidden;rotatable=0;points=[[0,0.5],[1,0.5]];portConstraint=eastwest;" parent="VFtjQShfL0-Lv15Fn_P_-2" vertex="1">
                    <mxGeometry y="108" width="440" height="72" as="geometry"/>
                </mxCell>
                <mxCell id="VFtjQShfL0-Lv15Fn_P_-6" value="Format Reader" style="swimlane;fontStyle=1;align=center;verticalAlign=top;childLayout=stackLayout;horizontal=1;startSize=26;horizontalStack=0;resizeParent=1;resizeParentMax=0;resizeLast=0;collapsible=1;marginBottom=0;" parent="WIyWlLk6GJQsqaUBKTNV-1" vertex="1">
                    <mxGeometry x="40" y="65" width="310" height="140" as="geometry"/>
                </mxCell>
                <mxCell id="VFtjQShfL0-Lv15Fn_P_-7" value="- _filename: String&#10;- _Questions: ArrayList&lt;Questions&gt;" style="text;strokeColor=none;fillColor=none;align=left;verticalAlign=top;spacingLeft=4;spacingRight=4;overflow=hidden;rotatable=0;points=[[0,0.5],[1,0.5]];portConstraint=eastwest;" parent="VFtjQShfL0-Lv15Fn_P_-6" vertex="1">
                    <mxGeometry y="26" width="310" height="34" as="geometry"/>
                </mxCell>
                <mxCell id="VFtjQShfL0-Lv15Fn_P_-8" value="" style="line;strokeWidth=1;fillColor=none;align=left;verticalAlign=middle;spacingTop=-1;spacingLeft=3;spacingRight=3;rotatable=0;labelPosition=right;points=[];portConstraint=eastwest;" parent="VFtjQShfL0-Lv15Fn_P_-6" vertex="1">
                    <mxGeometry y="60" width="310" height="8" as="geometry"/>
                </mxCell>
                <mxCell id="VFtjQShfL0-Lv15Fn_P_-9" value="+ FormatReader(in filename: String) : obj&#10;+ getFileName(): String&#10;+ getQuestions(): ArrayList&lt;Question&gt;&#10;+ setQuestions(in questions: ArrayList&lt;Question&gt;): void" style="text;strokeColor=none;fillColor=none;align=left;verticalAlign=top;spacingLeft=4;spacingRight=4;overflow=hidden;rotatable=0;points=[[0,0.5],[1,0.5]];portConstraint=eastwest;" parent="VFtjQShfL0-Lv15Fn_P_-6" vertex="1">
                    <mxGeometry y="68" width="310" height="72" as="geometry"/>
                </mxCell>
                <mxCell id="VFtjQShfL0-Lv15Fn_P_-30" value="Question" style="swimlane;fontStyle=1;align=center;verticalAlign=top;childLayout=stackLayout;horizontal=1;startSize=26;horizontalStack=0;resizeParent=1;resizeParentMax=0;resizeLast=0;collapsible=1;marginBottom=0;" parent="WIyWlLk6GJQsqaUBKTNV-1" vertex="1">
                    <mxGeometry x="420" y="30" width="380" height="210" as="geometry"/>
                </mxCell>
                <mxCell id="VFtjQShfL0-Lv15Fn_P_-31" value="- _Question: String&#10;- _Answer: String&#10;- _type: String&#10;" style="text;strokeColor=none;fillColor=none;align=left;verticalAlign=top;spacingLeft=4;spacingRight=4;overflow=hidden;rotatable=0;points=[[0,0.5],[1,0.5]];portConstraint=eastwest;" parent="VFtjQShfL0-Lv15Fn_P_-30" vertex="1">
                    <mxGeometry y="26" width="380" height="54" as="geometry"/>
                </mxCell>
                <mxCell id="VFtjQShfL0-Lv15Fn_P_-32" value="" style="line;strokeWidth=1;fillColor=none;align=left;verticalAlign=middle;spacingTop=-1;spacingLeft=3;spacingRight=3;rotatable=0;labelPosition=right;points=[];portConstraint=eastwest;" parent="VFtjQShfL0-Lv15Fn_P_-30" vertex="1">
                    <mxGeometry y="80" width="380" height="8" as="geometry"/>
                </mxCell>
                <mxCell id="VFtjQShfL0-Lv15Fn_P_-33" value="+ Question(in Question: String, in Answer,: String, in type: String):Â  obj&#10;+ getQuestion(): String&#10;+ getAnswer(): String&#10;+ getType(): int&#10;+ createTFQuestion(): String&#10;+ createMPQuestoin(): String&#10;+ createOneWordQuestion(); String&#10;+ toString(): String" style="text;strokeColor=none;fillColor=none;align=left;verticalAlign=top;spacingLeft=4;spacingRight=4;overflow=hidden;rotatable=0;points=[[0,0.5],[1,0.5]];portConstraint=eastwest;" parent="VFtjQShfL0-Lv15Fn_P_-30" vertex="1">
                    <mxGeometry y="88" width="380" height="122" as="geometry"/>
                </mxCell>
                <mxCell id="VFtjQShfL0-Lv15Fn_P_-41" value="String Reader" style="swimlane;fontStyle=1;align=center;verticalAlign=top;childLayout=stackLayout;horizontal=1;startSize=26;horizontalStack=0;resizeParent=1;resizeParentMax=0;resizeLast=0;collapsible=1;marginBottom=0;" parent="WIyWlLk6GJQsqaUBKTNV-1" vertex="1">
                    <mxGeometry x="15" y="300" width="430" height="120" as="geometry"/>
                </mxCell>
                <mxCell id="VFtjQShfL0-Lv15Fn_P_-42" value="- _pairDelimiter: String&#10;- _typeDelimiter: String" style="text;strokeColor=none;fillColor=none;align=left;verticalAlign=top;spacingLeft=4;spacingRight=4;overflow=hidden;rotatable=0;points=[[0,0.5],[1,0.5]];portConstraint=eastwest;" parent="VFtjQShfL0-Lv15Fn_P_-41" vertex="1">
                    <mxGeometry y="26" width="430" height="44" as="geometry"/>
                </mxCell>
                <mxCell id="VFtjQShfL0-Lv15Fn_P_-43" value="" style="line;strokeWidth=1;fillColor=none;align=left;verticalAlign=middle;spacingTop=-1;spacingLeft=3;spacingRight=3;rotatable=0;labelPosition=right;points=[];portConstraint=eastwest;" parent="VFtjQShfL0-Lv15Fn_P_-41" vertex="1">
                    <mxGeometry y="70" width="430" height="8" as="geometry"/>
                </mxCell>
                <mxCell id="VFtjQShfL0-Lv15Fn_P_-44" value="+ StringReader(String fileName, String pairDelimiter, String typeDelimiter): obj&#10;+ public readFile(): void" style="text;strokeColor=none;fillColor=none;align=left;verticalAlign=top;spacingLeft=4;spacingRight=4;overflow=hidden;rotatable=0;points=[[0,0.5],[1,0.5]];portConstraint=eastwest;" parent="VFtjQShfL0-Lv15Fn_P_-41" vertex="1">
                    <mxGeometry y="78" width="430" height="42" as="geometry"/>
                </mxCell>
                <mxCell id="1" value="Extends" style="endArrow=block;endSize=16;endFill=0;html=1;entryX=0.5;entryY=0.986;entryDx=0;entryDy=0;entryPerimeter=0;exitX=0.5;exitY=0;exitDx=0;exitDy=0;" edge="1" parent="WIyWlLk6GJQsqaUBKTNV-1" source="VFtjQShfL0-Lv15Fn_P_-41" target="VFtjQShfL0-Lv15Fn_P_-9">
                    <mxGeometry width="160" relative="1" as="geometry">
                        <mxPoint x="330" y="400" as="sourcePoint"/>
                        <mxPoint x="490" y="400" as="targetPoint"/>
                    </mxGeometry>
                </mxCell>
                <mxCell id="2" value="Driver" style="swimlane;fontStyle=1;align=center;verticalAlign=top;childLayout=stackLayout;horizontal=1;startSize=26;horizontalStack=0;resizeParent=1;resizeParentMax=0;resizeLast=0;collapsible=1;marginBottom=0;" vertex="1" parent="WIyWlLk6GJQsqaUBKTNV-1">
                    <mxGeometry x="40" y="500" width="230" height="170" as="geometry"/>
                </mxCell>
                <mxCell id="3" value="+ sr: StringReader&#10;+ tc: TestCreator&#10;+ inputFileName: String&#10;+outputFileName: String&#10;+ keyFileName: String&#10;+ Scheme: int" style="text;strokeColor=none;fillColor=none;align=left;verticalAlign=top;spacingLeft=4;spacingRight=4;overflow=hidden;rotatable=0;points=[[0,0.5],[1,0.5]];portConstraint=eastwest;" vertex="1" parent="2">
                    <mxGeometry y="26" width="230" height="94" as="geometry"/>
                </mxCell>
                <mxCell id="4" value="" style="line;strokeWidth=1;fillColor=none;align=left;verticalAlign=middle;spacingTop=-1;spacingLeft=3;spacingRight=3;rotatable=0;labelPosition=right;points=[];portConstraint=eastwest;" vertex="1" parent="2">
                    <mxGeometry y="120" width="230" height="8" as="geometry"/>
                </mxCell>
                <mxCell id="5" value="+ main(String[] args): void&#10;+ delimiters(in ext: String): String[]&#10;" style="text;strokeColor=none;fillColor=none;align=left;verticalAlign=top;spacingLeft=4;spacingRight=4;overflow=hidden;rotatable=0;points=[[0,0.5],[1,0.5]];portConstraint=eastwest;" vertex="1" parent="2">
                    <mxGeometry y="128" width="230" height="42" as="geometry"/>
                </mxCell>
                <mxCell id="9" value="" style="endArrow=none;html=1;edgeStyle=orthogonalEdgeStyle;exitX=1;exitY=0.5;exitDx=0;exitDy=0;entryX=0.005;entryY=0.778;entryDx=0;entryDy=0;entryPerimeter=0;" edge="1" parent="WIyWlLk6GJQsqaUBKTNV-1" source="VFtjQShfL0-Lv15Fn_P_-7" target="VFtjQShfL0-Lv15Fn_P_-31">
                    <mxGeometry relative="1" as="geometry">
                        <mxPoint x="330" y="350" as="sourcePoint"/>
                        <mxPoint x="490" y="350" as="targetPoint"/>
                    </mxGeometry>
                </mxCell>
                <mxCell id="11" value="1..*" style="edgeLabel;resizable=0;html=1;align=right;verticalAlign=bottom;" connectable="0" vertex="1" parent="9">
                    <mxGeometry x="1" relative="1" as="geometry">
                        <mxPoint x="-2" as="offset"/>
                    </mxGeometry>
                </mxCell>
                <mxCell id="12" value="" style="endArrow=diamondThin;endFill=1;endSize=24;html=1;exitX=0.349;exitY=1.095;exitDx=0;exitDy=0;exitPerimeter=0;entryX=0.552;entryY=-0.006;entryDx=0;entryDy=0;entryPerimeter=0;" edge="1" parent="WIyWlLk6GJQsqaUBKTNV-1" source="VFtjQShfL0-Lv15Fn_P_-44" target="2">
                    <mxGeometry width="160" relative="1" as="geometry">
                        <mxPoint x="330" y="480" as="sourcePoint"/>
                        <mxPoint x="240" y="460" as="targetPoint"/>
                    </mxGeometry>
                </mxCell>
                <mxCell id="13" value="" style="endArrow=diamondThin;endFill=1;endSize=24;html=1;entryX=1.004;entryY=0.255;entryDx=0;entryDy=0;entryPerimeter=0;exitX=0;exitY=0.5;exitDx=0;exitDy=0;" edge="1" parent="WIyWlLk6GJQsqaUBKTNV-1" source="VFtjQShfL0-Lv15Fn_P_-3" target="3">
                    <mxGeometry width="160" relative="1" as="geometry">
                        <mxPoint x="380" y="561" as="sourcePoint"/>
                        <mxPoint x="330" y="620" as="targetPoint"/>
                    </mxGeometry>
                </mxCell>
            </root>
        </mxGraphModel>
    </diagram>
</mxfile>